<svg enable-background="new 0 0 105 48" viewBox="0 0 105 48" xmlns="http://www.w3.org/2000/svg"><path d="m39 .5c-5.6 0-10.1 4.5-10.1 10.1v27c0 5.6 4.5 10.1 10.1 10.1h27c5.6 0 10.1-4.5 10.1-10.1v-27c0-5.6-4.5-10.1-10.1-10.1zm0 2.2h27c4.3 0 7.9 3.5 7.9 7.9v27c0 4.3-3.5 7.9-7.9 7.9h-27c-4.3 0-7.9-3.5-7.9-7.9v-27c0-4.4 3.6-7.9 7.9-7.9zm11.2 6.5c-.6 0-1 .3-1 .9s.3.9.7 1h.5c.4-.1.7-.4.7-.8 0-.5-.2-.8-.6-1-.1-.1-.2-.1-.3-.1zm-9.2 2.6c-.6 0-1.2.2-1.7.6 0 0-.1.1-.2.1 0-.1 0-.2-.1-.2 0-.2-.1-.3-.3-.3s-.5 0-.7 0-.3 0-.5.2v8.1c.1.2.3.2.4.2h.8c.5 0 .5 0 .5-.5v-2.2c0-.1 0-.1 0-.2.4.3.9.5 1.3.5.7.1 1.3-.1 1.8-.6.4-.3.7-.8.8-1.3.2-.6.2-1.3.2-1.9 0-.4-.1-.8-.3-1.2-.3-.7-.8-1.2-1.5-1.3-.1 0-.3 0-.5 0zm15.2 0c-.2 0-.4 0-.6.1-.5.1-1 .3-1.4.6-.1 0-.1.1-.2.1 0-.1-.1-.2-.1-.3s-.1-.2-.3-.2h-1c-.1 0-.2.1-.2.1v.2 5.4c0 .3.1.3.3.3h1c.3 0 .3-.1.3-.3v-4.1c0-.1 0-.1.1-.1.4-.2.9-.3 1.4-.3.3 0 .5.2.5.5v.4 3.7c0 .3.1.4.3.4h.8.4c.1 0 .2-.1.2-.2s0-.1 0-.2v-4.1c0-.1 0-.1.1-.1.4-.2.9-.3 1.3-.3.2 0 .5.2.5.4 0 .1.1.3 0 .4v3.6.3c0 .1.1.2.2.2h.2.9c.3 0 .4 0 .4-.4v-4c0-.1 0-.2 0-.3 0-.4-.1-.8-.4-1.1s-.7-.4-1.2-.5c-.6 0-1.2.1-1.8.4-.2.1-.4.2-.6.3s0 0 0-.1c-.2-.3-.5-.5-.9-.6.2-.2 0-.2-.2-.2zm9.8.1c-.3 0-.5 0-.8 0-1.2.1-2 .8-2.4 2-.3.8-.2 1.6 0 2.4.3 1 1 1.6 2 1.9.6.1 1.2.1 1.8 0 .3-.1.6-.1.9-.2.2-.1.3-.2.3-.4s0-.4 0-.6-.1-.3-.3-.2-.4.1-.7.1c-.5.1-1 .1-1.5 0-.7-.1-1.1-.7-1-1.4h.2c.6.1 1.2.1 1.8 0 .3 0 .7-.1 1-.3s.6-.5.7-.9c.3-1-.1-2-1.2-2.3-.3-.1-.6-.1-.8-.1zm-17.7 0c-.5 0-1 .1-1.4.4-.2.1-.3.3-.4.4l-.1.1c0-.2-.1-.4-.1-.6-.2-.1-.3-.2-.5-.2h-.8c-.4 0-.4 0-.4.4v5.3.2s.1.2.2.2h.2 1 .2c.1 0 .2-.1.2-.2s0-.1 0-.2v-3.7c0-.1 0-.2.1-.2.5-.2 1-.3 1.5-.2h.3s.2-.1.2-.2 0-.2 0-.3c0-.3 0-.5 0-.8s0-.4-.2-.4zm1.3.1c-.2 0-.3.1-.3.3v2.7 2.6.2s.1.2.2.2h.1 1.1.1c.1 0 .2-.1.2-.2s0-.2 0-.3v-5.1c0-.1 0-.1 0-.2 0-.2-.1-.2-.2-.2-.4 0-.8 0-1.2 0zm16 1.1c.1 0 .3 0 .4.1.2.1.3.3.4.5v.4c-.1.3-.3.4-.6.4-.2 0-.3.1-.5 0-.3 0-.6 0-.9-.1-.1 0-.1 0-.1-.1 0-.2.1-.4.1-.5.3-.6.8-.8 1.2-.7zm-25.1 0h.3c.3 0 .6.3.7.6.1.2.2.5.2.8 0 .5 0 1-.1 1.5-.1.2-.2.5-.4.6-.2.2-.4.3-.7.3-.4 0-.8-.1-1.1-.2-.1 0-.1-.1-.1-.2v-1.5c0-.5 0-.9 0-1.4 0-.1.1-.2.2-.2.3-.2.6-.3 1-.3zm4.7 7.5c-.1 0-.1 0-.2 0-.5 0-.8.4-.9.8 0 .6.2 1 .7 1.1h.3c.7 0 1.2-.4 1.1-1.1 0-.3-.2-.6-.6-.8 0 .1-.2 0-.4 0zm7 .1c-.3 0-.4.1-.4.4v2.7.2c-.1 0-.1-.1-.2-.1-.9-.5-1.8-.6-2.7-.2-.6.3-1 .8-1.3 1.5-.2.6-.3 1.3-.3 1.9s.1 1.2.4 1.8.8 1.1 1.4 1.3c.9.3 1.8.1 2.5-.4.1 0 .1-.1.2-.1 0 .1.1.2.1.3s.1.2.3.2h.2.9c.2 0 .3-.1.3-.3v-8.9c0-.3-.1-.3-.3-.3zm12.6 2.7c-.3 0-.5 0-.8 0-1.1.2-1.9.8-2.3 1.8s-.4 2.1 0 3.1c.3.9 1 1.5 1.9 1.7.5.1 1 .2 1.6.1 1.7-.2 2.5-1.5 2.6-2.7 0 0 0-.3 0-.5v-.7c0-.1 0-.3 0-.3 0-.2 0-.3-.1-.5-.3-1.1-1-1.8-2.1-2.1-.2.1-.5.1-.8.1zm-6.8.1c-1.4 0-2.5.7-2.9 2.1-.3.9-.2 1.9 0 2.8.3.9 1 1.5 1.9 1.8.4.1.8.1 1.2.1.6 0 1.2-.1 1.8-.3.2-.1.3-.2.3-.4v-.6c0-.2-.1-.3-.3-.3s-.4.1-.5.1c-.6.1-1.1.2-1.7.1s-.9-.4-1.1-1c0-.2-.1-.3-.1-.5h.1c.5.1 1.1.1 1.7.1.5 0 1-.1 1.4-.4.4-.2.7-.6.8-1.1.1-.3.1-.6 0-.9-.2-.7-.6-1.2-1.4-1.5-.4-.1-.8-.1-1.2-.1zm-20.8.1c-.2 0-.2.1-.2.2s.1.2.1.3c.5 1.3 1 2.6 1.5 3.9.2.5.4 1.1.6 1.7.1.2.2.3.5.3h1.1c.2 0 .4-.1.4-.3 0-.1 0-.1.1-.1.6-1.4 1.1-2.9 1.7-4.3l.5-1.3c.1-.3 0-.4-.3-.4h-1.2c-.1 0-.3.1-.3.2v.2c-.4 1.3-.8 2.6-1.1 3.8-.1.2-.1.3-.1.5-.3-1.2-.7-2.3-1-3.5-.1-.3-.2-.6-.3-1 0-.2-.1-.3-.3-.3-.7.1-1.2.1-1.7.1zm7.4 0c-.3 0-.3.1-.3.3v5.7.2c0 .2.1.2.3.2h1.3c.2 0 .2-.1.3-.2v-3-2.9c0-.3-.1-.3-.3-.3zm13.2 1.1h.3.1c.6.1.7.6.6 1-.1.3-.4.5-.7.5-.2 0-.3 0-.5 0-.3 0-.7 0-1-.1-.1 0-.1 0-.1-.1.1-.3.1-.6.3-.9.4-.2.7-.3 1-.4zm-7.4.1c.4 0 .9 0 1.3.2.1 0 .2.1.1.2v1.5 1.5c0 .1 0 .2-.1.2-.4.2-.9.3-1.3.2-.4 0-.7-.3-.9-.6-.1-.3-.2-.5-.2-.8-.1-.5 0-1.1.1-1.6 0-.1.1-.3.2-.4.1-.2.4-.4.8-.4zm14.1.1h.5c.3.1.6.3.8.6.1.3.2.6.2.9v.4c0 .4 0 .7-.1 1.1 0 .2-.1.3-.2.5-.2.3-.5.4-.8.4-.2 0-.3 0-.5 0-.3-.1-.6-.3-.8-.6-.1-.3-.2-.5-.2-.8 0-.5 0-1 .1-1.5 0-.2.1-.4.2-.5.1-.3.5-.5.8-.5zm0 7.8c-.5 0-.9.1-1.4.2-.6.1-1.2.4-1.7.7-.1 0-.2.1-.2.2s-.1.2 0 .2c0 .1.1.1.2.1l.8-.1c.6-.1 1.2-.1 1.9-.1.2 0 .4.1.6.1.2.1.4.3.4.5v.4c0 .4-.1.7-.2 1.1-.2.7-.4 1.3-.6 1.9v.2c0 .1.1.2.2.2s.2-.1.2-.1c.3-.3.6-.6.8-1 .6-1 1-2.1 1-3.3 0-.2 0-.4 0-.6s-.1-.3-.3-.4c-.1-.1-.2-.1-.3-.1-.5 0-.9-.1-1.4-.1zm-25.8.4c-.2.2-.2.3-.1.4 0 .1.1.1.1.2.2.2.5.4.7.6 2.5 2.2 5.4 3.8 8.7 4.6 1 .2 1.9.4 2.9.4.4 0 .7 0 1.1.1h.8c1.1 0 2.1-.2 3.2-.3 1.8-.3 3.6-.9 5.3-1.8.9-.4 1.7-1 2.5-1.6.1-.1.2-.2.2-.3v-.1c.1-.2-.1-.5-.3-.5-.1 0-.3 0-.4.1-.8.4-1.7.7-2.5 1-1.6.5-3.3.9-5 1.1-.7.1-1.5.2-2.2.2-1.4 0-2.7 0-4.1-.2-.9-.1-1.9-.3-2.8-.5-2.8-.6-5.4-1.7-7.8-3.2-.1 0-.1-.1-.3-.2.1-.1.1-.1 0 0z" fill="#bababa"/></svg>