<svg enable-background="new 0 0 105 48" viewBox="0 0 105 48" xmlns="http://www.w3.org/2000/svg"><g fill="#bababa" transform="matrix(2.81 0 0 2.81 1.406593 1.406593)"><path d="m16.8 11c.3 0 .6.1.8.2s.3.2.4.4c.2.3.2.7 0 1-.1.2-.3.4-.5.5s-.4.2-.7.2c-.4 0-.9 0-1.3-.2-.2-.1-.5-.3-.6-.6-.1-.2-.1-.4 0-.6.2-.3.6-.3 1-.3.2 0 .7.1.9.2.1 0 .3.1.3.2v.1c-.1.2-.5.3-.6.3-.3 0-.5-.1-.8-.2-.1 0-.2-.1-.3-.1-.2 0-.4 0-.4.2 0 .1.1.2.2.2.2.1.3.1.5.1.5 0 1.2-.1 1.6-.4.1 0 .1-.1.1-.2 0-.2-.3-.3-.3-.3-.3-.1-.9-.2-1.1-.2-.3 0-.8-.1-.9-.1s-.2 0-.3-.1c-.1 0-.2-.1-.2-.3-.1-.2 0-.5.1-.6.3-.4 1-.6 1.5-.7s1.3-.1 1.8.2c.1 0 .1.1.1.2 0 .2-.1.3-.3.3-.1 0-.5.1-.6.1-.6 0-1.3 0-1.9.2 0 0-.1 0-.1.1-.1.1.2.1.2.1zm-3.6-2.7s.1-.1.2-.3.4-.5.6-.7c.1-.1.1-.1.1-.1s-.1 0-.2 0c-.2 0-.4.2-.5.3-.1.2-.3.5-.2.8zm1.1.3c.3 0 .6-.1.8-.2.3-.1.6-.4.6-.7 0-.1-.1-.2-.2-.2s-.2 0-.3 0-.2 0-.2.1c-.4 0-.8.4-1 .7-.1.1-.1.1-.1.2v.1c-.1 0 .2 0 .4 0m-.8.5s-.1.1-.1.2l-.1.1c-.1.1-.1.1-.2 0s-.1-.3-.1-.4 0-.1 0-.2-.1-.2-.2-.3-.1-.3-.1-.4c0-.3.2-.6.4-.9.2-.2.5-.4.9-.5.3-.1.8-.2 1.1-.1.1 0 .3.1.3.2v.1h.1c.1 0 .3.1.3.2.1.1.2.2.2.4.1.3-.1.7-.3.9-.4.4-.7.6-1.1.8-.2.1-.5.1-.7.1-.1 0-.1 0-.2 0 0-.1-.1-.1-.2-.2zm.4.7c.2.1.3.2.3.4.1.4.1 1.2.1 1.5v.7s0 .5 0 .7c0 .1-.1.1-.1.2-.1 0-.2.1-.3 0-.2 0-.3-.2-.3-.4-.1-.5 0-1.6 0-2.1 0-.1.1-.6.1-.8.1-.1.1-.2.2-.2m-7 .9s-.3 0-.6.1c-.3 0-.9.1-1.2.2-.1 0-.3.1-.3.2s0 .2.1.3l.3.3c.3.2.8.6 1.2.8.1.1.4.1.4.1s0-.7 0-1.3c.1-.3.1-.7.1-.7m6.3.3v.6s-.1.3-.1.4c-.1.1-.1.3-.2.4-.1.2-.4.5-.5.7-.6.5-1.5.8-2.3.9-.5.1-1.1.1-1.7 0-.2 0-.5-.1-.5-.1s0 .1 0 .2v.2c0 .1-.1.1-.2.1s-.2 0-.4 0c-.3-.3-.3-.4-.3-.6s-.1-.4-.1-.4-.1-.1-.2-.1c-.3-.2-.7-.4-1-.6-.1-.1-.4-.3-.5-.4-.2-.3-.4-.5-.5-.7s-.1-.4-.1-.6c.1-.3.5-.5.8-.6.2-.2.9-.4 1.2-.4.1 0 .3-.1.3-.1s0-.3 0-.4.1-.8.1-.9.1-.4.1-.5.1 0 .2 0c.4.2.5.9.5 1.2v.5s.4 0 .6 0 .5 0 .7.1c.3 0 .8.2 1.2.3.3.1.5.4.6.6s.1.4 0 .6-.4.4-.6.4c-.1 0-.3 0-.4-.1v-.1s.1-.1.2-.1c0 0 .1 0 .1-.1.1-.1.1-.1.1-.2s-.1-.1-.2-.2c-.4-.2-1.3-.3-1.7-.3-.2 0-.4 0-.4 0v2.3s.2 0 .3.1h.6c.8 0 1.6 0 2.3-.4.3-.1.6-.3.8-.6.3-.3.4-.8.4-1.2 0-.5-.4-1.1-.7-1.4-.7-.9-2-1.7-3.1-2.2-1.3-.4-2.4-.7-3.6-.7-.3 0-1 0-1.3.1h-.1-.1.3s.1.1.2.1v.1c-.2.3-.5.2-.6.2-.2 0-.3 0-.4-.2 0-.1 0-.3.1-.4.1-.2.3-.4.6-.5.4-.1 1-.2 1.3-.2 1 0 1.9.2 2.7.5.5.2 1.1.4 1.6.6.3.2.9.5 1.2.7.1.1.7.5.7.5.2.1.4.4.6.5.3.3.7.8.9 1.2 0 .1.1.2.1.3l.1.3v.2c.2.1.3.3.3.4m11.3-.5c-.4.1-1.5.2-1.5.2l-.1.4h1s.1 0 .1.1v.3s0 .1-.1.1c-.2 0-1.2.1-1.2.1l-.2.6s-.1.1.1.1c.1 0 1.2-.2 1.4-.2s.3.2.3.4c-.1.2-1.1.9-1.8.9 0 0-.3 0-.6-.4s.1-1.3.1-1.3-.2-.4 0-.5c0 0 .1-.1.3-.1l.3-.6s-.3 0-.5-.2-.2-.3-.1-.4 1.4-.3 2.3-.3c0 0 .3 0 .6.5-.3 0-.2.2-.4.3m-3.3 2.1c-.1.3-.4.5-.8.4-.4-.2-.9-1.4-.9-1.4s-.2-.4-.3-.4c0 0 0-.1-.1.4 0 .5 0 1.4-.2 1.6-.2.1-.4.1-.5-.1s-.1-.6-.1-1.3c.1-.7.2-1.5.4-1.7s.4-.1.4 0c0 0 .3.3.7 1l.1.1s.4.7.5.7h.1v-.2s-.1-.8-.5-2.1c0 0-.1-.2 0-.3 0-.2.2-.1.2-.1s.6.3.9 1.3c.4 1 .2 1.8.1 2.1m6.4-.6c-.3.5-1 1.5-2 1.2-.3.8-.6 1.6-.8 2.9 0 0 0 .2-.2.2-.2-.1-.5-.4-.6-.8-.1-.6.2-1.6.7-2.8-.2-.3-.3-.6-.2-1.1 0 0 .1-1 1.1-1.8 0 0 .1-.1.2-.1s0 .3 0 .5c-.1.2-.5.9-.5.9s-.3.5-.2.9c.5-.8 1.7-2.4 2.4-1.9.2.2.4.5.4 1-.1.2-.1.6-.3.9m-.2-1.2s0-.3-.3 0-.7.8-1.1 1.6c.4 0 .8-.3.9-.4.1-.2.6-.6.5-1.2m5.8-.1h-1.9c0-.6-.1-1.2-.2-1.9 0-.1-.1-.1-.1-.1h-.4-.1v.1c.1.6.2 1.2.2 1.8h-1.8c-.1 0-.2.1-.2.2v.4c0 .1.1.2.2.2h1.8v.3c0 .6 0 1-.1 1.5v.1h.1.4c.1 0 .1-.1.1-.1.1-.5.1-1 .1-1.6 0-.1 0-.2 0-.3h1.8c.1 0 .2-.1.2-.2v-.4c0 .1 0 0-.1 0"/><path d="m8.3 5.5.1.2.3.1h.1s.1 0 .2-.1c1.1-1.6 2.6-2.9 4.3-3.9 1.7-.8 3.7-1.3 5.7-1.3 2.4 0 4.8.7 6.8 2.1 2 1.3 3.5 3.2 4.4 5.3 0 .1.1.1.2.1h.4s.1 0 .1-.1v-.1c-.9-2.3-2.5-4.3-4.6-5.7-2.1-1.5-4.6-2.2-7.2-2.2-4.4-.1-8.4 2-10.8 5.6"/></g></svg>