<svg enable-background="new 0 0 105 48" viewBox="0 0 105 48" xmlns="http://www.w3.org/2000/svg"><path d="m22.4 10.6c1.5-1.8 2.2-4 2-6.3-2.2.2-4.3 1.3-5.8 3s-2.2 3.8-2.1 6.1c2.3 0 4.5-1 5.9-2.8m1.8 3.2c-3.2-.2-5.9 1.8-7.5 1.8s-3.9-1.7-6.4-1.7c-3.4.1-6.4 2-8.1 4.9-3.5 6-.9 14.9 2.4 19.8 1.6 2.3 3.6 5.1 6.2 5s3.4-1.6 6.4-1.6 3.8 1.6 6.4 1.6 4.4-2.3 6-4.8c1.2-1.7 2.1-3.6 2.7-5.6-3.2-1.4-5.2-4.5-5.2-8 0-3.1 1.6-5.9 4.2-7.5-1.6-2.3-4.2-3.8-7.1-3.9m20.6-4.6v6.6h5.3v4.3h-5.3v15.6c0 2.3 1 3.5 3.3 3.5.6 0 1.3-.1 1.9-.1v4.4c-1 .2-2.1.2-3.1.2-5.4 0-7.5-2.1-7.5-7.4v-16h-4.1v-4.4h4v-6.7zm23.6 34.2h-5.8l-9.6-27.6h5.7l6.8 22.2h.1l6.8-22.1h5.6zm25.3 0h-5v-11.3h-10.6v-5h10.7v-11.3h5v11.3h10.7v5h-10.8z" fill="#bababa"/></svg>