<svg enable-background="new 0 0 105 48" viewBox="0 0 105 48" xmlns="http://www.w3.org/2000/svg"><path clip-rule="evenodd" d="m17.5 17.7h-5.2c-1.8 0-2.7.5-2.7.5v-11h-8.2v33.6h8.1v-13.6c0-1.2 1-2.2 2.2-2.2h4.7c1.2 0 2.2 1 2.2 2.2v13.5h8.1v-14.5c0-6.1-4.1-8.5-9.2-8.5zm78 0v13.5c0 1.2-1 2.2-2.2 2.2h-4.7c-1.2 0-2.2-1-2.2-2.2v-13.5h-8.1v14.2c0 5.8 3.7 8.9 9.2 8.9h8c5.1 0 8.1-3.6 8.1-8.8v-14.3zm-45.8 13.5c0 1.2-1 2.2-2.2 2.2h-4.7c-1.2 0-2.2-1-2.2-2.2v-13.5h-8.1v14.2c0 5.8 3.7 8.9 9.2 8.9h8c5.1 0 8.1-3.6 8.1-8.8v-14.3h-8.1zm14.3 9.6h8.1v-33.6h-8.1z" fill="#bababa" fill-rule="evenodd"/></svg>