<svg enable-background="new 0 0 105 48" viewBox="0 0 105 48" xmlns="http://www.w3.org/2000/svg"><path d="m12.9 6.6v1.6 33.2h12.7 1.6 9.5 3.2 14c3.6 0 7.1-1.7 8.9-4.6 3.1 2.9 7.3 4.6 11.9 4.6 9.6 0 17.4-7.8 17.4-17.4s-7.8-17.4-17.4-17.4c-4.5 0-8.8 1.7-11.9 4.6-1.9-2.9-5.3-4.6-8.9-4.6h-14-3.2-9.5-1.6zm3.2 3.2h7.9v11.1h4.7v-11.1h7.9v28.5h-7.9v-11.1h-4.7v11.1h-7.9zm23.7 0h14c4 0 7.9 3.3 7.9 7.3v.4c2.4-4.5 7.4-7.7 12.9-7.7 7.9 0 14.2 6.4 14.2 14.2s-6.4 14.2-14.2 14.2c-5.5 0-10.5-3.2-12.9-7.7v.4c0 4-3.9 7.3-7.9 7.3h-14zm34.9 4.7c-5.2 0-9.5 4.3-9.5 9.5s4.3 9.5 9.5 9.5 9.5-4.3 9.5-9.5-4.3-9.5-9.5-9.5zm-26.9 1.6v4.7h3.6c1.3 0 2.4-1.1 2.4-2.4s-1.1-2.4-2.4-2.4h-3.6zm26.9 1.6c3.5 0 6.3 2.8 6.3 6.3s-2.8 6.3-6.3 6.3-6.3-2.8-6.3-6.3 2.7-6.3 6.3-6.3zm0 3.1c-1.7 0-3.2 1.4-3.2 3.2s1.4 3.2 3.2 3.2c1.7 0 3.2-1.4 3.2-3.2s-1.5-3.2-3.2-3.2zm-14.1 1.2c-.5.6-1.5 1.6-3.1 2 1.6.4 2.5 1.1 3.1 2-.3-.8-.2-3.2 0-4zm-12.8 4.8v4.7h3.6c1.3 0 2.4-1.1 2.4-2.4s-1.1-2.4-2.4-2.4z" fill="#bababa"/></svg>