<svg enable-background="new 0 0 105 48" viewBox="0 0 105 48" xmlns="http://www.w3.org/2000/svg"><path clip-rule="evenodd" d="m1.7 10.4v27.2c1.4-.2 2.9-.4 4.3-.6 0-5.7 0-9.2 0-14.9 1.9 5.6 3.1 8.9 5 14.2 1.5-.2 3.1-.4 4.6-.5 0-8.5 0-17 0-25.5h-4.3v15.4c-1.8-5.7-3.7-9.4-5.5-15.4h-4.1zm18.1 0v25.1c4-.4 7.9-.7 11.9-.9 0-1.2 0-3 0-4.2-2.6.2-5 .3-7.6.5 0-2.2 0-4.1 0-6.4h5.8c0-1.2 0-3 0-4.2-1.9 0-3.9 0-5.8.1 0-2.3 0-3.5 0-5.7h7.6c0-1.2 0-3 0-4.2h-11.9zm30.6 0v23.7h1.4 2.8c0-3.3 0-6.4 0-9.7h5.8c0-1.2 0-3 0-4.2-.5 0-5.6 0-5.8 0 0-2.2 0-3.4 0-5.5h7.7c0-1.2 0-3 0-4.2zm14.6 0v23.9c3.8.1 7.8.3 11.6.6 0-1.2 0-3 0-4.2-2.4-.1-4.9-.3-7.3-.4 0-6.8 0-13 0-19.8zm15.1 0v24.7c1.4.1 2.8.2 4.2.3 0-8.3 0-16.7 0-25.1h-4.2zm7.9 0c1.7 4.2 3.3 8.3 5 12.8-1.8 4.2-3.6 8.5-5.4 12.5 1.5.2 3 .4 4.5.5 1.1-2.6 2-4.6 3.1-7.3 1.1 2.9 2 5.1 3.1 8.1 1.5.2 3.4.5 4.9.7-1.8-4.8-3.8-9.8-5.6-14.4 1.8-4.3 3.6-8.4 5.5-12.8h-4.7c-1.2 2.8-2 4.5-3.1 7.2-1-2.7-1.7-4.5-2.8-7.2h-4.5zm-53.6 0v4.2h4.4v19.7c1.4-.1 2.9-.1 4.3-.1 0-6.7 0-12.9 0-19.6h4.5c0-1.2 0-3 0-4.2z" fill="#bababa" fill-rule="evenodd"/></svg>